<svg height="480pt" viewBox="-16 0 480 480" width="480pt" xmlns="http://www.w3.org/2000/svg"><path d="m144 48h176v-24c0-8.835938 7.164062-16 16-16h56c8.835938 0 16 7.164062 16 16v400c0 26.507812-21.492188 48-48 48h-232v-408c0-8.835938 7.164062-16 16-16zm0 0" fill="#ffc119"/><path d="m216 112h104c22.089844 0 40 17.910156 40 40v320h-144zm0 0" fill="#3688c8"/><path d="m360 472c-26.507812 0-48-21.492188-48-48v-152c0-8.835938-7.164062-16-16-16h-232v200c0 8.835938 7.164062 16 16 16zm0 0" fill="#faac2b"/><path d="m320 112c-22.089844 0-40 17.910156-40 40v248c0 13.253906-10.746094 24-24 24h-216v-288c0-13.253906 10.746094-24 24-24zm0 0" fill="#2fbadb"/><path d="m8 400v-16c0-8.835938 7.164062-16 16-16h192c8.835938 0 16 7.164062 16 16v16c0 13.253906 10.746094 24 24 24h-224c-13.253906 0-24-10.746094-24-24zm0 0" fill="#3688c8"/><path d="m80 480h280c30.910156-.039062 55.960938-25.089844 56-56v-400c0-13.253906-10.746094-24-24-24h-56c-13.253906 0-24 10.746094-24 24v16h-168c-13.253906 0-24 10.746094-24 24v40h-56c-17.671875 0-32 14.328125-32 32v224h-8c-13.253906 0-24 10.746094-24 24v16c0 17.671875 14.328125 32 32 32h24v24c0 13.253906 10.746094 24 24 24zm0-16c-4.417969 0-8-3.582031-8-8v-24h184c17.671875 0 32-14.328125 32-32v-136h8c4.417969 0 8 3.582031 8 8v152c-.003906 15.066406 6.085938 29.496094 16.886719 40zm240-344c17.671875 0 32 14.328125 32 32v311.199219c-18.613281-3.828125-31.976562-20.199219-32-39.199219v-152c0-13.253906-10.746094-24-24-24h-8v-96c0-17.671875 14.328125-32 32-32zm-184-56c0-4.417969 3.582031-8 8-8h176c4.417969 0 8-3.582031 8-8v-24c0-4.417969 3.582031-8 8-8h56c4.417969 0 8 3.582031 8 8v400c-.023438 19-13.386719 35.371094-32 39.199219v-311.199219c-.027344-26.5-21.5-47.972656-48-48h-184zm-88 72c0-8.835938 7.164062-16 16-16h220.320312c-7.925781 8.773438-12.316406 20.175781-12.320312 32v248c0 8.835938-7.164062 16-16 16s-16-7.164062-16-16v-16c0-13.253906-10.746094-24-24-24h-168zm-32 264v-16c0-4.417969 3.582031-8 8-8h192c4.417969 0 8 3.582031 8 8v16c-.007812 5.621094 1.472656 11.140625 4.296875 16h-196.296875c-8.835938 0-16-7.164062-16-16zm0 0"/><path d="m88 256h16v16h-16zm0 0"/><path d="m120 256h128v16h-128zm0 0"/><path d="m72 288h176v16h-176zm0 0"/><path d="m72 320h144v16h-144zm0 0"/><path d="m248 216h-16v-72h-16v72h-16v-56h-16v56h-16v-32h-16v32h-16v-48h-16v48h-16v-32h-16v32h-16v16h176zm0 0"/><path d="m344 32h40v16h-40zm0 0"/><path d="m432 104h16v184h-16zm0 0"/><path d="m432 72h16v16h-16zm0 0"/><path d="m0 176h16v144h-16zm0 0"/></svg>