<svg height="512" viewBox="0 0 512 512" width="512" xmlns="http://www.w3.org/2000/svg"><g id="Filledotuline"><path d="m416 320h48v48h-48v48h48v48h-312l-24-384h272v48h48v48h-48v48h64v48h-48z" fill="#eaae48"/><path d="m336 312.25v151.75h-184l-24-384h51.85l33.98 156.3 97.03 38.81a39.814 39.814 0 0 1 25.14 37.14z" fill="#d7a147"/><path d="m48 64h92.657a24 24 0 0 1 23.452 18.9l35.891 165.1 104.913 41.965a24 24 0 0 1 15.087 22.284v167.751h-272z" fill="#cacac9"/><path d="m225.711 380.934 22.289-20.122-10.751-25.954-29.989 1.531-15.649-15.649 1.531-29.99-25.954-10.75-20.122 22.289h-22.132l-20.122-22.289-25.954 10.75 1.531 29.99-15.649 15.649-29.989-1.531-10.751 25.954 22.289 20.122v22.132l-22.289 20.122 10.751 25.954 29.989-1.531 15.649 15.649-1.531 29.99 25.954 10.75 20.122-22.289h22.132l20.122 22.289 25.954-10.75-1.531-29.99 15.649-15.649 29.989 1.531 10.751-25.954-22.289-20.122zm-89.711 51.066a40 40 0 1 1 40-40 40 40 0 0 1 -40 40z" fill="#0093b9"/><path d="m136 344a48 48 0 1 0 48 48 48.054 48.054 0 0 0 -48-48zm0 80a32 32 0 1 1 32-32 32.036 32.036 0 0 1 -32 32z"/><path d="m236.841 457.132a7.992 7.992 0 0 0 7.8-4.927l10.751-25.955a8 8 0 0 0 -2.03-9l-19.65-17.74v-15.02l19.65-17.74a8 8 0 0 0 2.03-9l-10.752-25.95a7.982 7.982 0 0 0 -7.8-4.927l-26.439 1.35-10.62-10.623 1.351-26.439a8 8 0 0 0 -4.928-7.8l-25.954-10.75a8 8 0 0 0 -9 2.03l-17.74 19.65h-15.02l-17.74-19.65a8 8 0 0 0 -9-2.03l-25.95 10.748a8 8 0 0 0 -4.928 7.8l1.347 26.441-10.619 10.618-26.439-1.35a7.974 7.974 0 0 0 -7.8 4.927l-10.752 25.955a8 8 0 0 0 2.03 9l19.65 17.74v15.02l-19.65 17.74a8 8 0 0 0 -2.03 9l10.751 25.955a7.983 7.983 0 0 0 7.8 4.927l26.439-1.35 10.62 10.618-1.351 26.439a8 8 0 0 0 4.928 7.8l25.954 10.75a8 8 0 0 0 9-2.03l17.74-19.65h15.02l17.74 19.65a8 8 0 0 0 9 2.03l25.954-10.75a8 8 0 0 0 4.928-7.8l-1.351-26.439 10.621-10.62zm-35.241-15.178-15.646 15.646a8 8 0 0 0 -2.333 6.065l1.244 24.351-15.522 6.429-16.343-18.095a8 8 0 0 0 -5.939-2.639h-22.13a8 8 0 0 0 -5.931 2.639l-16.339 18.1-15.522-6.429 1.244-24.351a8 8 0 0 0 -2.333-6.065l-15.65-15.651a8 8 0 0 0 -6.064-2.333l-24.351 1.244-6.429-15.522 18.094-16.343a8 8 0 0 0 2.639-5.938v-22.13a8 8 0 0 0 -2.639-5.932l-18.1-16.34 6.429-15.522 24.351 1.244a8 8 0 0 0 6.064-2.333l15.652-15.649a8 8 0 0 0 2.333-6.065l-1.244-24.351 15.522-6.429 16.343 18.095a8 8 0 0 0 5.939 2.639h22.13a8 8 0 0 0 5.931-2.639l16.339-18.1 15.522 6.429-1.244 24.351a8 8 0 0 0 2.333 6.065l15.65 15.649a8 8 0 0 0 6.064 2.333l24.351-1.244 6.429 15.522-18.094 16.345a8 8 0 0 0 -2.639 5.938v22.13a8 8 0 0 0 2.639 5.932l18.1 16.34-6.429 15.522-24.351-1.244a8 8 0 0 0 -6.07 2.336z"/><path d="m307.884 282.538-100.969-40.388-34.988-160.95a32.182 32.182 0 0 0 -31.27-25.2h-92.657a8 8 0 0 0 -8 8v248h16v-240h84.657a16.092 16.092 0 0 1 15.635 12.6l35.891 165.1a8 8 0 0 0 4.846 5.729l104.913 41.965a15.924 15.924 0 0 1 10.058 14.855v159.751h-96v16h104a8 8 0 0 0 8-8v-167.751a31.845 31.845 0 0 0 -20.116-29.711z"/><path d="m464 280a8 8 0 0 0 8-8v-48a8 8 0 0 0 -8-8h-56v-32h40a8 8 0 0 0 8-8v-48a8 8 0 0 0 -8-8h-40v-40a8 8 0 0 0 -8-8h-216v16h32v32h-16v16h64v32h-56v16h96v32h-88v16h40v16h16v-16h80v32h-32v16h88v32h-64v16h16v32h-16v16h64v32h-64v16h16v32h-16v16h120a8 8 0 0 0 8-8v-48a8 8 0 0 0 -8-8h-40v-32h40a8 8 0 0 0 8-8v-48a8 8 0 0 0 -8-8h-40v-32zm-24-144v32h-64v-32zm-48-16h-64v-32h64zm-160-32h80v32h-80zm48 48h80v32h-80zm40 48h72v32h-72zm136 240v32h-80v-32zm0-96v32h-80v-32zm-88-64v-32h88v32z"/></g></svg>