<?xml version="1.0" encoding="iso-8859-1"?>
<!-- Generator: Adobe Illustrator 19.0.0, SVG Export Plug-In . SVG Version: 6.00 Build 0)  -->
<svg version="1.1" id="Capa_1" xmlns="http://www.w3.org/2000/svg" xmlns:xlink="http://www.w3.org/1999/xlink" x="0px" y="0px"
	 viewBox="0 0 399.89 399.89" style="enable-background:new 0 0 399.89 399.89;" xml:space="preserve">
<circle style="fill:#CCCCCC;" cx="143.932" cy="143.739" r="136"/>
<circle style="fill:#29ABE2;" cx="143.932" cy="143.739" r="104"/>
<rect x="301.322" y="250.21" transform="matrix(-0.7071 0.7071 -0.7071 -0.7071 781.9438 323.608)" style="fill:#A67C52;" width="45.256" height="147.081"/>
<rect x="341.318" y="346.772" transform="matrix(-0.7071 0.7071 -0.7071 -0.7071 878.5 363.6017)" style="fill:#754C24;" width="45.256" height="33.944"/>
<path d="M143.932,287.739c35.399-0.003,69.543-13.112,95.848-36.8l20.8,20.8l-10.344,10.344c-3.123,3.124-3.123,8.188,0,11.312
	l104,104c3.124,3.123,8.188,3.123,11.312,0l32-32c3.123-3.124,3.123-8.188,0-11.312l-104-104c-3.124-3.123-8.188-3.123-11.312,0
	l-10.304,10.344l-20.8-20.8c52.843-59.281,47.623-150.176-11.658-203.018S89.298-11.015,36.455,48.267
	s-47.623,150.176,11.658,203.018C74.489,274.796,108.598,287.772,143.932,287.739z M380.62,359.739l-20.688,20.688l-12.688-12.688
	l20.688-20.688L380.62,359.739z M287.932,267.051l68.688,68.688l-20.688,20.688l-68.688-68.688L287.932,267.051z M143.932,15.739
	c70.692,0,128,57.308,128,128s-57.308,128-128,128s-128-57.308-128-128C16.015,73.081,73.274,15.822,143.932,15.739z"/>
<path d="M143.932,255.739c61.856,0,112-50.144,112-112s-50.144-112-112-112s-112,50.144-112,112
	C31.998,205.567,82.103,255.672,143.932,255.739z M143.932,47.739c53.019,0,96,42.981,96,96s-42.981,96-96,96s-96-42.981-96-96
	C47.989,90.743,90.936,47.796,143.932,47.739z"/>
<rect x="95.933" y="135.728" transform="matrix(-0.7071 0.7071 -0.7071 -0.7071 347.3334 143.5755)" width="95.992" height="16"/>
<rect x="134.581" y="158.36" transform="matrix(-0.7071 0.7071 -0.7071 -0.7071 402.0051 166.2116)" width="64" height="16"/>
<rect x="89.284" y="113.099" transform="matrix(-0.7071 0.7071 -0.7071 -0.7071 292.6743 120.9674)" width="64" height="16"/>
<g>
</g>
<g>
</g>
<g>
</g>
<g>
</g>
<g>
</g>
<g>
</g>
<g>
</g>
<g>
</g>
<g>
</g>
<g>
</g>
<g>
</g>
<g>
</g>
<g>
</g>
<g>
</g>
<g>
</g>
</svg>
