<?xml version="1.0" encoding="iso-8859-1"?>
<!-- Generator: Adobe Illustrator 19.0.0, SVG Export Plug-In . SVG Version: 6.00 Build 0)  -->
<svg version="1.1" id="Capa_1" xmlns="http://www.w3.org/2000/svg" xmlns:xlink="http://www.w3.org/1999/xlink" x="0px" y="0px"
	 viewBox="0 0 512 512" style="enable-background:new 0 0 512 512;" xml:space="preserve">
<rect x="114.759" y="8.828" style="fill:#F5F1EF;" width="388.414" height="423.724"/>
<path style="fill:#DEDAD8;" d="M450.922,8.828L450.922,8.828C451.425,209.39,311.04,382.755,114.759,423.98v8.572h388.414V8.828
	H450.922z"/>
<path style="fill:#F2C09A;" d="M397.241,392.828c0-12.191-9.878-22.069-22.069-22.069c12.191,0,22.069-9.878,22.069-22.069
	c0-12.191-9.878-22.069-22.069-22.069h-66.207l2.33-5.826c9.957-24.911,11.811-52.321,5.297-78.345
	c-4.493-17.973-20.639-30.579-39.159-30.588h-12.606c10.831,43.352-3.505,89.123-37.129,118.555l-15.837,13.859h-35.31v141.241
	h35.31c23.217,11.608,48.825,17.655,74.787,17.655h88.523c12.191,0,22.069-9.878,22.069-22.069c0-12.191-9.878-22.069-22.069-22.069
	c12.191,0,22.069-9.878,22.069-22.069s-9.878-22.069-22.069-22.069C387.363,414.897,397.241,405.018,397.241,392.828z"/>
<rect x="88.276" y="326.621" style="fill:#55A9DB;" width="88.276" height="176.552"/>
<rect x="0" y="344.276" style="fill:#DEDAD8;" width="88.276" height="141.241"/>
<rect x="123.586" y="459.034" width="17.655" height="17.655"/>
<path d="M503.172,0H114.759c-4.873,0-8.828,3.955-8.828,8.828v308.966H88.276c-4.873,0-8.828,3.955-8.828,8.828v8.828H0v17.655
	h79.448V476.69H0v17.655h79.448v8.828c0,4.873,3.955,8.828,8.828,8.828h88.276c4.873,0,8.828-3.955,8.828-8.828v-8.828h24.435
	c23.949,11.582,50.202,17.62,76.8,17.655h88.558c17.037,0.026,30.87-13.771,30.897-30.808c0.009-8.342-3.354-16.34-9.34-22.157
	c4.829-4.749,7.954-10.955,8.889-17.655h97.554c4.873,0,8.828-3.955,8.828-8.828V8.828C512,3.955,508.045,0,503.172,0z
	 M167.724,494.345H97.103V335.448h70.621V494.345z M375.172,467.862c7.309,0,13.241,5.932,13.241,13.241
	s-5.932,13.241-13.241,13.241h-88.523c-24.594-0.044-48.843-5.782-70.841-16.772c-1.227-0.591-2.578-0.9-3.946-0.883h-26.483
	V353.103h26.483c2.136,0,4.202-0.777,5.809-2.18l15.837-13.859c33.209-28.91,49.143-72.907,42.134-116.374h1.766
	c14.504-0.044,27.171,9.816,30.676,23.896c6.109,24.223,4.378,49.761-4.952,72.934l-0.141,0.274h-20.507v17.655h92.69
	c7.309,0,13.241,5.932,13.241,13.241s-5.932,13.241-13.241,13.241h-22.069v17.655h22.069c7.309,0,13.241,5.932,13.241,13.241
	s-5.932,13.241-13.241,13.241h-22.069v17.655h22.069c7.309,0,13.241,5.932,13.241,13.241s-5.932,13.241-13.241,13.241h-22.069
	v17.655H375.172z M494.345,423.724H402.97c-1.545-3.284-3.663-6.276-6.241-8.828c12.191-11.82,12.482-31.285,0.662-43.476
	c-0.221-0.221-0.441-0.441-0.662-0.662c12.209-11.882,12.482-31.417,0.6-43.626c-5.817-5.985-13.815-9.348-22.157-9.34h-53.451
	c8.686-24.938,9.887-51.871,3.452-77.48c-5.447-21.928-25.15-37.305-47.74-37.279h-12.606c-4.873,0-8.828,3.955-8.828,8.828
	c0,0.715,0.088,1.439,0.265,2.136c10.143,40.148-3.151,82.582-34.375,109.771l-13.347,11.679h-23.164v-8.828
	c0-4.873-3.955-8.828-8.828-8.828h-52.966V17.655h370.759V423.724z"/>
<rect x="158.897" y="52.966" width="123.586" height="17.655"/>
<rect x="158.897" y="105.931" width="300.138" height="17.655"/>
<rect x="158.897" y="158.897" width="300.138" height="17.655"/>
<rect x="361.931" y="211.862" width="97.103" height="17.655"/>
<rect x="361.931" y="264.828" width="97.103" height="17.655"/>
<g>
</g>
<g>
</g>
<g>
</g>
<g>
</g>
<g>
</g>
<g>
</g>
<g>
</g>
<g>
</g>
<g>
</g>
<g>
</g>
<g>
</g>
<g>
</g>
<g>
</g>
<g>
</g>
<g>
</g>
</svg>
